# 3ds Max Wavefront OBJ Exporter v0.97b - (c)2007 guruware
# File Created: 08.12.2018 02:38:09

mtllib daybar.mtl

#
# object Plane002
#

v  -75.0000 -25.0000 -0.0000
v  75.0000 -25.0000 -0.0000
v  75.0000 25.0000 0.0000
v  -75.0000 25.0000 0.0000
# 4 vertices

vn 0.0000 -0.0000 1.0000
# 1 vertex normals

vt 0.0000 0.0000 0.0000
vt 1.0000 0.0000 0.0000
vt 1.0000 1.0000 0.0000
vt 0.0000 1.0000 0.0000
# 4 texture coords

g Plane002
usemtl wire_006135058
s 1
f 1/1/1 2/2/1 3/3/1 
f 3/3/1 4/4/1 1/1/1 
# 0 polygons - 2 triangles

