# 3ds Max Wavefront OBJ Exporter v0.97b - (c)2007 guruware
# File Created: 08.12.2018 14:10:39

mtllib dayframe.mtl

#
# object Plane001
#

v  -85.0000 0.1074 0.0000
v  -80.0619 -29.9819 -0.0000
v  -79.9784 30.1035 0.0000
v  80.2004 29.9483 0.0000
v  85.0000 35.0000 0.0000
v  10.0176 35.0000 0.0000
v  -85.0000 35.0000 0.0000
v  -85.0000 -35.0000 -0.0000
v  0.0299 -35.0000 -0.0000
v  79.9895 -30.0572 -0.0000
v  85.0000 -35.0000 -0.0000
v  85.0000 -0.2099 0.0000
# 12 vertices

vn 0.0000 -0.0000 1.0000
vn -0.0000 -0.0000 1.0000
# 2 vertex normals

vt 0.0000 0.5015 0.0000
vt 0.0290 0.0717 0.0000
vt 0.0295 0.9300 0.0000
vt 0.9718 0.9278 0.0000
vt 1.0000 1.0000 0.0000
vt 0.5589 1.0000 0.0000
vt 0.0000 1.0000 0.0000
vt 0.0000 0.0000 0.0000
vt 0.5002 0.0000 0.0000
vt 0.9705 0.0706 0.0000
vt 1.0000 0.0000 0.0000
vt 1.0000 0.4970 0.0000
# 12 texture coords

g Plane001
usemtl wire_225143087
s 1
f 1/1/1 2/2/2 3/3/1 
f 4/4/2 5/5/2 6/6/2 
f 6/6/2 7/7/1 3/3/1 
f 4/4/2 6/6/2 3/3/1 
f 3/3/1 7/7/1 1/1/1 
f 1/1/1 8/8/2 2/2/2 
f 2/2/2 9/9/1 10/10/1 
f 2/2/2 8/8/2 9/9/1 
f 9/9/1 11/11/1 10/10/1 
f 10/10/1 12/12/2 4/4/2 
f 10/10/1 11/11/1 12/12/2 
f 12/12/2 5/5/2 4/4/2 
# 0 polygons - 12 triangles

#
# object Plane002
#

#
# object Plane003
#

v  0.0000 36.8085 0.0000
v  10.0000 49.6793 0.0000
v  -10.0000 49.6793 0.0000
# 3 vertices

vn 0.0000 -0.0000 1.0000
# 1 vertex normals

vt 0.5107 0.0000 0.0000
vt 1.0000 1.0000 0.0000
vt 0.0000 1.0000 0.0000
# 3 texture coords

g Plane003
usemtl wire_057008136
s 1
f 13/13/3 14/14/3 15/15/3 
# 0 polygons - 1 triangles

