# 3ds Max Wavefront OBJ Exporter v0.97b - (c)2007 guruware
# File Created: 08.12.2018 17:36:51

mtllib destroyframe.mtl

#
# object Plane001
#

v  78.5000 -43.5000 -0.0000
v  78.5000 43.5000 0.0000
v  80.0000 -45.0000 -0.0000
v  -78.5000 43.5000 0.0000
v  -80.0000 45.0000 0.0000
v  -78.5000 -43.5000 -0.0000
v  -80.0000 -45.0000 -0.0000
v  80.0000 45.0000 0.0000
# 8 vertices

vn 0.0000 0.0000 -1.0000
# 1 vertex normals

vt 0.9671 0.9413 0.0000
vt 0.9597 0.0845 0.0000
vt 1.0000 1.0000 0.0000
vt 0.0448 0.0780 0.0000
vt 0.0000 0.0000 0.0000
vt 0.0448 0.9217 0.0000
vt 0.0000 1.0000 0.0000
vt 1.0000 0.0000 0.0000
# 8 texture coords

g Plane001
usemtl _destroyframewire_214229166
s 1
f 1/1/1 2/2/1 3/3/1 
f 4/4/1 5/5/1 2/2/1 
f 6/6/1 5/5/1 4/4/1 
f 1/1/1 3/3/1 6/6/1 
f 3/3/1 7/7/1 6/6/1 
f 6/6/1 7/7/1 5/5/1 
f 5/5/1 8/8/1 2/2/1 
f 2/2/1 8/8/1 3/3/1 
# 0 polygons - 8 triangles

