# 3ds Max Wavefront OBJ Exporter v0.97b - (c)2007 guruware
# File Created: 09.12.2018 14:07:53

mtllib gridimg.mtl

#
# object Plane001
#

v  30.0000 30.0000 0.0000
v  29.0000 30.0000 0.0000
v  29.0000 28.4016 0.0000
v  30.0000 28.4026 0.0000
v  20.5000 30.0000 0.0000
v  20.5000 28.3936 0.0000
v  19.5000 30.0000 0.0000
v  19.5000 28.3926 0.0000
v  10.5000 30.0000 0.0000
v  10.5000 28.3840 0.0000
v  9.5000 30.0000 0.0000
v  9.5000 28.3831 0.0000
v  0.5000 30.0000 0.0000
v  0.5000 28.3745 0.0000
v  -9.5000 30.0000 0.0000
v  -9.5000 28.3650 0.0000
v  -0.5000 28.3736 0.0000
v  -0.5000 30.0000 0.0000
v  -19.5000 30.0000 0.0000
v  -19.5000 28.3555 0.0000
v  -10.5000 28.3641 0.0000
v  -10.5000 30.0000 0.0000
v  -29.0000 30.0000 0.0000
v  -29.0000 28.3464 0.0000
v  -20.5000 28.3545 0.0000
v  -20.5000 30.0000 0.0000
v  -30.0000 30.0000 0.0000
v  -30.0000 28.3455 0.0000
v  -30.0000 19.5734 0.0000
v  -29.0000 19.5792 0.0000
v  -29.0000 20.7527 0.0000
v  -30.0000 20.7552 0.0000
v  -20.5000 19.6285 0.0000
v  -20.5000 20.7319 0.0000
v  -19.5000 19.6343 0.0000
v  -19.5000 20.7294 0.0000
v  -10.5000 19.4392 0.0000
v  -10.5000 20.7073 0.0000
v  -9.5000 19.7886 0.0000
v  -9.5000 20.7049 0.0000
v  -0.5000 19.8407 0.0000
v  -0.5000 20.8303 0.0000
v  0.5000 19.5029 0.0000
v  0.5000 20.8279 0.0000
v  9.5000 19.5550 0.0000
v  9.5000 20.8058 0.0000
v  10.5000 19.5608 0.0000
v  10.5000 20.8033 0.0000
v  19.5000 19.6130 0.0000
v  19.5000 20.7812 0.0000
v  20.5000 19.6188 0.0000
v  20.5000 20.7788 0.0000
v  29.0000 19.6681 0.0000
v  29.0000 20.7579 0.0000
v  30.0000 19.6739 0.0000
v  30.0000 20.7555 0.0000
v  -30.0000 9.1736 0.0000
v  -29.0000 9.1693 0.0000
v  -29.0000 10.6091 0.0000
v  -30.0000 10.6069 0.0000
v  -20.5000 9.1324 0.0000
v  -20.5000 10.6275 0.0000
v  -19.5000 9.1280 0.0000
v  -19.5000 10.6297 0.0000
v  -10.5000 9.2224 0.0000
v  -10.5000 10.6493 0.0000
v  -9.5000 9.2181 0.0000
v  -9.5000 10.9951 0.0000
v  -0.5000 9.1790 0.0000
v  -0.5000 11.0146 0.0000
v  0.5000 9.1747 0.0000
v  0.5000 10.6731 0.0000
v  9.5000 9.1356 0.0000
v  9.5000 10.6927 0.0000
v  10.5000 9.1312 0.0000
v  10.5000 10.6949 0.0000
v  19.5000 9.0922 0.0000
v  19.5000 10.7144 0.0000
v  20.5000 9.0878 0.0000
v  20.5000 10.7166 0.0000
v  29.0000 9.0509 0.0000
v  29.0000 10.7350 0.0000
v  30.0000 9.0465 0.0000
v  30.0000 10.7372 0.0000
v  -30.0000 -0.3381 -0.0000
v  -29.0000 -0.3424 -0.0000
v  -29.0000 0.8346 -0.0000
v  -30.0000 0.8346 -0.0000
v  -20.5000 -0.3793 -0.0000
v  -20.5000 0.8346 -0.0000
v  -19.5000 -0.3837 -0.0000
v  -19.5000 0.8346 -0.0000
v  -10.5000 -0.4228 -0.0000
v  -10.5000 0.8346 -0.0000
v  -9.5000 -0.4271 -0.0000
v  -9.5000 0.8346 -0.0000
v  -0.5000 -0.4662 -0.0000
v  -0.5000 0.8346 -0.0000
v  0.5000 -0.4705 -0.0000
v  0.5000 0.8346 -0.0000
v  9.5000 -0.5096 -0.0000
v  9.5000 0.8346 -0.0000
v  10.5000 -0.5140 -0.0000
v  10.5000 0.8346 -0.0000
v  19.5000 -0.5530 -0.0000
v  19.5000 0.8346 -0.0000
v  20.5000 -0.5574 -0.0000
v  20.5000 0.8346 -0.0000
v  29.0000 -0.5943 -0.0000
v  29.0000 0.8346 -0.0000
v  30.0000 -0.5987 -0.0000
v  30.0000 0.8346 -0.0000
v  -30.0000 -10.5012 -0.0000
v  -29.0000 -10.5034 -0.0000
v  -29.0000 -9.5870 -0.0000
v  -30.0000 -9.5892 -0.0000
v  -20.5000 -10.5219 -0.0000
v  -20.5000 -9.5685 -0.0000
v  -19.5000 -10.5241 -0.0000
v  -19.5000 -9.5664 -0.0000
v  -10.5000 -10.5436 -0.0000
v  -10.5000 -9.5468 -0.0000
v  -9.5000 -10.5458 -0.0000
v  -9.5000 -9.5447 -0.0000
v  -0.5000 -10.5653 -0.0000
v  -0.5000 -9.5251 -0.0000
v  0.5000 -10.5675 -0.0000
v  0.5000 -9.5229 -0.0000
v  9.5000 -10.5870 -0.0000
v  9.5000 -9.5034 -0.0000
v  10.5000 -10.5892 -0.0000
v  10.5000 -9.5012 -0.0000
v  19.5000 -10.6087 -0.0000
v  19.5000 -9.4817 -0.0000
v  20.5000 -10.6109 -0.0000
v  20.5000 -9.4795 -0.0000
v  29.0000 -10.6294 -0.0000
v  29.0000 -9.4610 -0.0000
v  30.0000 -10.6315 -0.0000
v  30.0000 -9.4589 -0.0000
v  -30.0000 -20.5341 -0.0000
v  -29.0000 -20.5385 -0.0000
v  -29.0000 -19.4939 -0.0000
v  -30.0000 -19.4918 -0.0000
v  -20.5000 -20.5754 -0.0000
v  -20.5000 -19.5124 -0.0000
v  -19.5000 -20.5798 -0.0000
v  -19.5000 -19.5146 -0.0000
v  -10.5000 -20.6188 -0.0000
v  -10.5000 -19.5341 -0.0000
v  -9.5000 -20.6232 -0.0000
v  -9.5000 -19.5363 -0.0000
v  -0.5000 -20.6623 -0.0000
v  -0.5000 -19.5558 -0.0000
v  0.5000 -20.6666 -0.0000
v  0.5000 -19.5580 -0.0000
v  9.5000 -20.7057 -0.0000
v  9.5000 -19.5775 -0.0000
v  10.5000 -20.7100 -0.0000
v  10.5000 -19.5797 -0.0000
v  19.5000 -20.7491 -0.0000
v  19.5000 -19.5993 -0.0000
v  20.5000 -20.7535 -0.0000
v  20.5000 -19.6014 -0.0000
v  29.0000 -20.7904 -0.0000
v  29.0000 -19.6199 -0.0000
v  30.0000 -20.7947 -0.0000
v  30.0000 -19.6221 -0.0000
v  -30.0000 -30.0000 -0.0000
v  -29.0000 -30.0000 -0.0000
v  -29.0000 -29.3595 -0.0000
v  -30.0000 -29.3610 -0.0000
v  -20.5000 -30.0000 -0.0000
v  -20.5000 -29.3464 -0.0000
v  -19.5000 -30.0000 -0.0000
v  -19.5000 -29.3449 -0.0000
v  -10.5000 -30.0000 -0.0000
v  -10.5000 -29.3311 -0.0000
v  -9.5000 -30.0000 -0.0000
v  -9.5000 -29.3295 -0.0000
v  -0.5000 -30.0000 -0.0000
v  -0.5000 -29.3157 -0.0000
v  0.5000 -30.0000 -0.0000
v  0.5000 -29.3142 -0.0000
v  9.5000 -30.0000 -0.0000
v  9.5000 -29.3004 -0.0000
v  10.5000 -30.0000 -0.0000
v  10.5000 -29.2988 -0.0000
v  19.5000 -30.0000 -0.0000
v  19.5000 -29.2850 -0.0000
v  20.5000 -30.0000 -0.0000
v  20.5000 -29.2835 -0.0000
v  29.0000 -30.0000 -0.0000
v  29.0000 -29.2704 -0.0000
v  30.0000 -30.0000 -0.0000
v  30.0000 -29.2689 -0.0000
# 196 vertices

vn 0.0000 -0.0000 1.0000
vn -0.0000 -0.0000 1.0000
# 2 vertex normals

vt 1.0000 1.0000 0.0000
vt 0.9718 1.0000 0.0000
vt 0.9717 0.9734 0.0000
vt 1.0000 0.9734 0.0000
vt 0.8269 1.0000 0.0000
vt 0.8270 0.9732 0.0000
vt 0.7828 1.0000 0.0000
vt 0.7831 0.9732 0.0000
vt 0.6540 1.0000 0.0000
vt 0.6542 0.9731 0.0000
vt 0.6084 1.0000 0.0000
vt 0.6083 0.9731 0.0000
vt 0.4922 1.0000 0.0000
vt 0.4921 0.9729 0.0000
vt 0.3418 1.0000 0.0000
vt 0.3414 0.9728 0.0000
vt 0.4384 0.9729 0.0000
vt 0.4383 1.0000 0.0000
vt 0.1715 1.0000 0.0000
vt 0.1715 0.9726 0.0000
vt 0.2987 0.9727 0.0000
vt 0.2993 1.0000 0.0000
vt 0.0325 1.0000 0.0000
vt 0.0326 0.9724 0.0000
vt 0.1429 0.9726 0.0000
vt 0.1432 1.0000 0.0000
vt 0.0000 1.0000 0.0000
vt 0.0000 0.9724 0.0000
vt 0.0000 0.8115 0.0000
vt 0.0335 0.8116 0.0000
vt 0.0333 0.8483 0.0000
vt 0.0000 0.8484 0.0000
vt 0.1414 0.8124 0.0000
vt 0.1417 0.8480 0.0000
vt 0.1713 0.8125 0.0000
vt 0.1714 0.8479 0.0000
vt 0.2957 0.8134 0.0000
vt 0.2964 0.8476 0.0000
vt 0.3388 0.8135 0.0000
vt 0.3393 0.8475 0.0000
vt 0.4388 0.8144 0.0000
vt 0.4387 0.8472 0.0000
vt 0.4911 0.8145 0.0000
vt 0.4913 0.8471 0.0000
vt 0.6076 0.8153 0.0000
vt 0.6077 0.8468 0.0000
vt 0.6550 0.8154 0.0000
vt 0.6548 0.8467 0.0000
vt 0.7846 0.8163 0.0000
vt 0.7843 0.8464 0.0000
vt 0.8276 0.8164 0.0000
vt 0.8275 0.8463 0.0000
vt 0.9707 0.8172 0.0000
vt 0.9709 0.8460 0.0000
vt 1.0000 0.8173 0.0000
vt 1.0000 0.8459 0.0000
vt 0.0000 0.6413 0.0000
vt 0.0344 0.6412 0.0000
vt 0.0343 0.6648 0.0000
vt 0.0000 0.6647 0.0000
vt 0.1398 0.6406 0.0000
vt 0.1400 0.6651 0.0000
vt 0.1711 0.6405 0.0000
vt 0.1711 0.6651 0.0000
vt 0.2925 0.6431 0.0000
vt 0.2930 0.6688 0.0000
vt 0.3359 0.6430 0.0000
vt 0.3364 0.6688 0.0000
vt 0.4392 0.6424 0.0000
vt 0.4392 0.6692 0.0000
vt 0.4900 0.6423 0.0000
vt 0.4902 0.6692 0.0000
vt 0.6069 0.6417 0.0000
vt 0.6070 0.6695 0.0000
vt 0.6559 0.6416 0.0000
vt 0.6557 0.6696 0.0000
vt 0.7863 0.6410 0.0000
vt 0.7860 0.6699 0.0000
vt 0.8283 0.6409 0.0000
vt 0.8282 0.6699 0.0000
vt 0.9696 0.6403 0.0000
vt 0.9698 0.6702 0.0000
vt 1.0000 0.6403 0.0000
vt 1.0000 0.6703 0.0000
vt 0.0000 0.4856 0.0000
vt 0.0353 0.4855 0.0000
vt 0.0352 0.5048 0.0000
vt 0.0000 0.5048 0.0000
vt 0.1383 0.4849 0.0000
vt 0.1385 0.5048 0.0000
vt 0.1709 0.4848 0.0000
vt 0.1709 0.5048 0.0000
vt 0.2895 0.4850 0.0000
vt 0.2899 0.5056 0.0000
vt 0.3333 0.4849 0.0000
vt 0.3337 0.5056 0.0000
vt 0.4397 0.4843 0.0000
vt 0.4396 0.5056 0.0000
vt 0.4890 0.4842 0.0000
vt 0.4892 0.5056 0.0000
vt 0.6062 0.4836 0.0000
vt 0.6063 0.5056 0.0000
vt 0.6567 0.4835 0.0000
vt 0.6566 0.5056 0.0000
vt 0.7878 0.4828 0.0000
vt 0.7876 0.5056 0.0000
vt 0.8289 0.4828 0.0000
vt 0.8288 0.5056 0.0000
vt 0.9687 0.4822 0.0000
vt 0.9688 0.5056 0.0000
vt 1.0000 0.4821 0.0000
vt 1.0000 0.5056 0.0000
vt 0.0000 0.3192 0.0000
vt 0.0362 0.3192 0.0000
vt 0.0361 0.3342 0.0000
vt 0.0000 0.3341 0.0000
vt 0.1367 0.3189 0.0000
vt 0.1369 0.3345 0.0000
vt 0.1707 0.3188 0.0000
vt 0.1707 0.3345 0.0000
vt 0.2863 0.3190 0.0000
vt 0.2866 0.3354 0.0000
vt 0.3306 0.3190 0.0000
vt 0.3309 0.3354 0.0000
vt 0.4401 0.3187 0.0000
vt 0.4400 0.3357 0.0000
vt 0.4880 0.3186 0.0000
vt 0.4881 0.3358 0.0000
vt 0.6055 0.3183 0.0000
vt 0.6056 0.3361 0.0000
vt 0.6576 0.3183 0.0000
vt 0.6575 0.3361 0.0000
vt 0.7894 0.3180 0.0000
vt 0.7892 0.3364 0.0000
vt 0.8295 0.3179 0.0000
vt 0.8295 0.3365 0.0000
vt 0.9676 0.3176 0.0000
vt 0.9678 0.3368 0.0000
vt 1.0000 0.3176 0.0000
vt 1.0000 0.3368 0.0000
vt 0.0000 0.1550 0.0000
vt 0.0370 0.1549 0.0000
vt 0.0370 0.1720 0.0000
vt 0.0000 0.1720 0.0000
vt 0.1352 0.1543 0.0000
vt 0.1353 0.1717 0.0000
vt 0.1705 0.1542 0.0000
vt 0.1706 0.1717 0.0000
vt 0.2832 0.1538 0.0000
vt 0.2835 0.1716 0.0000
vt 0.3279 0.1537 0.0000
vt 0.3282 0.1716 0.0000
vt 0.4405 0.1531 0.0000
vt 0.4405 0.1713 0.0000
vt 0.4870 0.1530 0.0000
vt 0.4871 0.1712 0.0000
vt 0.6048 0.1524 0.0000
vt 0.6049 0.1709 0.0000
vt 0.6584 0.1523 0.0000
vt 0.6583 0.1709 0.0000
vt 0.7910 0.1517 0.0000
vt 0.7908 0.1705 0.0000
vt 0.8302 0.1516 0.0000
vt 0.8301 0.1705 0.0000
vt 0.9666 0.1510 0.0000
vt 0.9667 0.1702 0.0000
vt 1.0000 0.1509 0.0000
vt 1.0000 0.1702 0.0000
vt 0.0000 0.0000 0.0000
vt 0.0379 0.0000 0.0000
vt 0.0378 0.0105 0.0000
vt 0.0000 0.0105 0.0000
vt 0.1337 0.0000 0.0000
vt 0.1338 0.0107 0.0000
vt 0.1703 0.0000 0.0000
vt 0.1704 0.0107 0.0000
vt 0.2803 0.0000 0.0000
vt 0.2805 0.0110 0.0000
vt 0.3254 0.0000 0.0000
vt 0.3255 0.0110 0.0000
vt 0.4409 0.0000 0.0000
vt 0.4409 0.0112 0.0000
vt 0.4860 0.0000 0.0000
vt 0.4861 0.0112 0.0000
vt 0.6042 0.0000 0.0000
vt 0.6042 0.0115 0.0000
vt 0.6592 0.0000 0.0000
vt 0.6591 0.0115 0.0000
vt 0.7925 0.0000 0.0000
vt 0.7924 0.0117 0.0000
vt 0.8307 0.0000 0.0000
vt 0.8307 0.0117 0.0000
vt 0.9657 0.0000 0.0000
vt 0.9658 0.0120 0.0000
vt 1.0000 0.0000 0.0000
vt 1.0000 0.0120 0.0000
# 196 texture coords

g Plane001
usemtl wire_087225143
s 1
f 1/1/1 2/2/1 3/3/1 
f 3/3/1 4/4/1 1/1/1 
f 5/5/2 6/6/2 3/3/1 
f 3/3/1 2/2/1 5/5/2 
f 7/7/2 8/8/2 6/6/2 
f 6/6/2 5/5/2 7/7/2 
f 9/9/2 10/10/1 8/8/2 
f 8/8/2 7/7/2 9/9/2 
f 11/11/1 12/12/1 10/10/1 
f 10/10/1 9/9/2 11/11/1 
f 13/13/2 14/14/2 12/12/1 
f 12/12/1 11/11/1 13/13/2 
f 15/15/1 16/16/2 17/17/2 
f 17/17/2 18/18/1 15/15/1 
f 13/13/2 18/18/1 17/17/2 
f 17/17/2 14/14/2 13/13/2 
f 19/19/1 20/20/2 21/21/2 
f 21/21/2 22/22/1 19/19/1 
f 15/15/1 22/22/1 21/21/2 
f 21/21/2 16/16/2 15/15/1 
f 23/23/2 24/24/2 25/25/2 
f 25/25/2 26/26/1 23/23/2 
f 19/19/1 26/26/1 25/25/2 
f 25/25/2 20/20/2 19/19/1 
f 27/27/2 28/28/2 24/24/2 
f 24/24/2 23/23/2 27/27/2 
f 29/29/1 30/30/1 31/31/2 
f 31/31/2 32/32/2 29/29/1 
f 30/30/1 33/33/1 34/34/1 
f 34/34/1 31/31/2 30/30/1 
f 33/33/1 35/35/2 36/36/2 
f 36/36/2 34/34/1 33/33/1 
f 35/35/2 37/37/1 38/38/2 
f 38/38/2 36/36/2 35/35/2 
f 37/37/1 39/39/1 40/40/1 
f 40/40/1 38/38/2 37/37/1 
f 39/39/1 41/41/2 42/42/1 
f 42/42/1 40/40/1 39/39/1 
f 41/41/2 43/43/2 44/44/2 
f 44/44/2 42/42/1 41/41/2 
f 43/43/2 45/45/1 46/46/1 
f 46/46/1 44/44/2 43/43/2 
f 45/45/1 47/47/1 48/48/2 
f 48/48/2 46/46/1 45/45/1 
f 47/47/1 49/49/1 50/50/1 
f 50/50/1 48/48/2 47/47/1 
f 49/49/1 51/51/1 52/52/2 
f 52/52/2 50/50/1 49/49/1 
f 51/51/1 53/53/1 54/54/1 
f 54/54/1 52/52/2 51/51/1 
f 53/53/1 55/55/1 56/56/1 
f 56/56/1 54/54/1 53/53/1 
f 4/4/1 3/3/1 54/54/1 
f 54/54/1 56/56/1 4/4/1 
f 6/6/2 8/8/2 50/50/1 
f 50/50/1 52/52/2 6/6/2 
f 10/10/1 12/12/1 46/46/1 
f 46/46/1 48/48/2 10/10/1 
f 14/14/2 17/17/2 42/42/1 
f 42/42/1 44/44/2 14/14/2 
f 16/16/2 21/21/2 38/38/2 
f 38/38/2 40/40/1 16/16/2 
f 20/20/2 25/25/2 34/34/1 
f 34/34/1 36/36/2 20/20/2 
f 24/24/2 28/28/2 32/32/2 
f 32/32/2 31/31/2 24/24/2 
f 57/57/2 58/58/2 59/59/2 
f 59/59/2 60/60/2 57/57/2 
f 58/58/2 61/61/2 62/62/2 
f 62/62/2 59/59/2 58/58/2 
f 61/61/2 63/63/2 64/64/2 
f 64/64/2 62/62/2 61/61/2 
f 63/63/2 65/65/1 66/66/1 
f 66/66/1 64/64/2 63/63/2 
f 65/65/1 67/67/1 68/68/1 
f 68/68/1 66/66/1 65/65/1 
f 67/67/1 69/69/2 70/70/2 
f 70/70/2 68/68/1 67/67/1 
f 69/69/2 71/71/2 72/72/2 
f 72/72/2 70/70/2 69/69/2 
f 71/71/2 73/73/2 74/74/2 
f 74/74/2 72/72/2 71/71/2 
f 73/73/2 75/75/2 76/76/2 
f 76/76/2 74/74/2 73/73/2 
f 75/75/2 77/77/2 78/78/2 
f 78/78/2 76/76/2 75/75/2 
f 77/77/2 79/79/2 80/80/2 
f 80/80/2 78/78/2 77/77/2 
f 79/79/2 81/81/2 82/82/2 
f 82/82/2 80/80/2 79/79/2 
f 81/81/2 83/83/2 84/84/2 
f 84/84/2 82/82/2 81/81/2 
f 55/55/1 53/53/1 82/82/2 
f 82/82/2 84/84/2 55/55/1 
f 51/51/1 49/49/1 78/78/2 
f 78/78/2 80/80/2 51/51/1 
f 47/47/1 45/45/1 74/74/2 
f 74/74/2 76/76/2 47/47/1 
f 43/43/2 41/41/2 70/70/2 
f 70/70/2 72/72/2 43/43/2 
f 39/39/1 37/37/1 66/66/1 
f 66/66/1 68/68/1 39/39/1 
f 35/35/2 33/33/1 62/62/2 
f 62/62/2 64/64/2 35/35/2 
f 30/30/1 29/29/1 60/60/2 
f 60/60/2 59/59/2 30/30/1 
f 85/85/2 86/86/2 87/87/2 
f 87/87/2 88/88/2 85/85/2 
f 86/86/2 89/89/2 90/90/2 
f 90/90/2 87/87/2 86/86/2 
f 89/89/2 91/91/2 92/92/2 
f 92/92/2 90/90/2 89/89/2 
f 91/91/2 93/93/2 94/94/2 
f 94/94/2 92/92/2 91/91/2 
f 93/93/2 95/95/2 96/96/2 
f 96/96/2 94/94/2 93/93/2 
f 95/95/2 97/97/2 98/98/2 
f 98/98/2 96/96/2 95/95/2 
f 97/97/2 99/99/2 100/100/2 
f 100/100/2 98/98/2 97/97/2 
f 99/99/2 101/101/2 102/102/2 
f 102/102/2 100/100/2 99/99/2 
f 101/101/2 103/103/2 104/104/2 
f 104/104/2 102/102/2 101/101/2 
f 103/103/2 105/105/2 106/106/2 
f 106/106/2 104/104/2 103/103/2 
f 105/105/2 107/107/2 108/108/2 
f 108/108/2 106/106/2 105/105/2 
f 107/107/2 109/109/2 110/110/2 
f 110/110/2 108/108/2 107/107/2 
f 109/109/2 111/111/2 112/112/2 
f 112/112/2 110/110/2 109/109/2 
f 83/83/2 81/81/2 110/110/2 
f 110/110/2 112/112/2 83/83/2 
f 79/79/2 77/77/2 106/106/2 
f 106/106/2 108/108/2 79/79/2 
f 75/75/2 73/73/2 102/102/2 
f 102/102/2 104/104/2 75/75/2 
f 71/71/2 69/69/2 98/98/2 
f 98/98/2 100/100/2 71/71/2 
f 67/67/1 65/65/1 94/94/2 
f 94/94/2 96/96/2 67/67/1 
f 63/63/2 61/61/2 90/90/2 
f 90/90/2 92/92/2 63/63/2 
f 58/58/2 57/57/2 88/88/2 
f 88/88/2 87/87/2 58/58/2 
f 113/113/2 114/114/2 115/115/2 
f 115/115/2 116/116/2 113/113/2 
f 114/114/2 117/117/2 118/118/2 
f 118/118/2 115/115/2 114/114/2 
f 117/117/2 119/119/2 120/120/2 
f 120/120/2 118/118/2 117/117/2 
f 119/119/2 121/121/2 122/122/2 
f 122/122/2 120/120/2 119/119/2 
f 121/121/2 123/123/2 124/124/2 
f 124/124/2 122/122/2 121/121/2 
f 123/123/2 125/125/2 126/126/2 
f 126/126/2 124/124/2 123/123/2 
f 125/125/2 127/127/2 128/128/2 
f 128/128/2 126/126/2 125/125/2 
f 127/127/2 129/129/2 130/130/2 
f 130/130/2 128/128/2 127/127/2 
f 129/129/2 131/131/2 132/132/2 
f 132/132/2 130/130/2 129/129/2 
f 131/131/2 133/133/2 134/134/2 
f 134/134/2 132/132/2 131/131/2 
f 133/133/2 135/135/2 136/136/2 
f 136/136/2 134/134/2 133/133/2 
f 135/135/2 137/137/2 138/138/2 
f 138/138/2 136/136/2 135/135/2 
f 137/137/2 139/139/2 140/140/2 
f 140/140/2 138/138/2 137/137/2 
f 111/111/2 109/109/2 138/138/2 
f 138/138/2 140/140/2 111/111/2 
f 107/107/2 105/105/2 134/134/2 
f 134/134/2 136/136/2 107/107/2 
f 103/103/2 101/101/2 130/130/2 
f 130/130/2 132/132/2 103/103/2 
f 99/99/2 97/97/2 126/126/2 
f 126/126/2 128/128/2 99/99/2 
f 95/95/2 93/93/2 122/122/2 
f 122/122/2 124/124/2 95/95/2 
f 91/91/2 89/89/2 118/118/2 
f 118/118/2 120/120/2 91/91/2 
f 86/86/2 85/85/2 116/116/2 
f 116/116/2 115/115/2 86/86/2 
f 141/141/2 142/142/2 143/143/2 
f 143/143/2 144/144/2 141/141/2 
f 142/142/2 145/145/2 146/146/2 
f 146/146/2 143/143/2 142/142/2 
f 145/145/2 147/147/2 148/148/2 
f 148/148/2 146/146/2 145/145/2 
f 147/147/2 149/149/2 150/150/2 
f 150/150/2 148/148/2 147/147/2 
f 149/149/2 151/151/2 152/152/2 
f 152/152/2 150/150/2 149/149/2 
f 151/151/2 153/153/2 154/154/2 
f 154/154/2 152/152/2 151/151/2 
f 153/153/2 155/155/2 156/156/2 
f 156/156/2 154/154/2 153/153/2 
f 155/155/2 157/157/2 158/158/2 
f 158/158/2 156/156/2 155/155/2 
f 157/157/2 159/159/2 160/160/2 
f 160/160/2 158/158/2 157/157/2 
f 159/159/2 161/161/2 162/162/2 
f 162/162/2 160/160/2 159/159/2 
f 161/161/2 163/163/2 164/164/2 
f 164/164/2 162/162/2 161/161/2 
f 163/163/2 165/165/2 166/166/2 
f 166/166/2 164/164/2 163/163/2 
f 165/165/2 167/167/2 168/168/2 
f 168/168/2 166/166/2 165/165/2 
f 139/139/2 137/137/2 166/166/2 
f 166/166/2 168/168/2 139/139/2 
f 135/135/2 133/133/2 162/162/2 
f 162/162/2 164/164/2 135/135/2 
f 131/131/2 129/129/2 158/158/2 
f 158/158/2 160/160/2 131/131/2 
f 127/127/2 125/125/2 154/154/2 
f 154/154/2 156/156/2 127/127/2 
f 123/123/2 121/121/2 150/150/2 
f 150/150/2 152/152/2 123/123/2 
f 119/119/2 117/117/2 146/146/2 
f 146/146/2 148/148/2 119/119/2 
f 114/114/2 113/113/2 144/144/2 
f 144/144/2 143/143/2 114/114/2 
f 169/169/2 170/170/2 171/171/2 
f 171/171/2 172/172/2 169/169/2 
f 170/170/2 173/173/2 174/174/2 
f 174/174/2 171/171/2 170/170/2 
f 173/173/2 175/175/2 176/176/2 
f 176/176/2 174/174/2 173/173/2 
f 175/175/2 177/177/2 178/178/2 
f 178/178/2 176/176/2 175/175/2 
f 177/177/2 179/179/2 180/180/2 
f 180/180/2 178/178/2 177/177/2 
f 179/179/2 181/181/2 182/182/2 
f 182/182/2 180/180/2 179/179/2 
f 181/181/2 183/183/2 184/184/2 
f 184/184/2 182/182/2 181/181/2 
f 183/183/2 185/185/2 186/186/2 
f 186/186/2 184/184/2 183/183/2 
f 185/185/2 187/187/2 188/188/2 
f 188/188/2 186/186/2 185/185/2 
f 187/187/2 189/189/2 190/190/2 
f 190/190/2 188/188/2 187/187/2 
f 189/189/2 191/191/2 192/192/2 
f 192/192/2 190/190/2 189/189/2 
f 191/191/2 193/193/1 194/194/2 
f 194/194/2 192/192/2 191/191/2 
f 193/193/1 195/195/1 196/196/1 
f 196/196/1 194/194/2 193/193/1 
f 167/167/2 165/165/2 194/194/2 
f 194/194/2 196/196/1 167/167/2 
f 163/163/2 161/161/2 190/190/2 
f 190/190/2 192/192/2 163/163/2 
f 159/159/2 157/157/2 186/186/2 
f 186/186/2 188/188/2 159/159/2 
f 155/155/2 153/153/2 182/182/2 
f 182/182/2 184/184/2 155/155/2 
f 151/151/2 149/149/2 178/178/2 
f 178/178/2 180/180/2 151/151/2 
f 147/147/2 145/145/2 174/174/2 
f 174/174/2 176/176/2 147/147/2 
f 142/142/2 141/141/2 172/172/2 
f 172/172/2 171/171/2 142/142/2 
# 266 faces

