# 3ds Max Wavefront OBJ Exporter v0.97b - (c)2007 guruware
# File Created: 07.12.2018 18:23:56

mtllib lowerbar.mtl

#
# object Plane001
#

v  -80.0000 13.0169 0.0000
v  -80.0000 -13.0169 -0.0000
v  80.0000 13.0169 0.0000
v  80.0000 -13.0169 -0.0000
# 4 vertices

vn 0.0000 -0.0000 1.0000
# 1 vertex normals

vt 0.0000 1.0000 0.0000
vt 0.0000 0.0000 0.0000
vt 1.0000 1.0000 0.0000
vt 1.0000 0.0000 0.0000
# 4 texture coords

g Plane001
usemtl wire_088144225
s 1
f 1/1/1 2/2/1 3/3/1 
f 4/4/1 3/3/1 2/2/1 
# 0 polygons - 2 triangles

