# 3ds Max Wavefront OBJ Exporter v0.97b - (c)2007 guruware
# File Created: 09.12.2018 06:48:10

mtllib path.mtl

#
# object Cylinder001
#

v  17.3565 0.0000 -0.0000
v  15.0311 -0.0000 -8.6782
v  15.0311 4.8327 -8.6782
v  17.3565 4.8327 -0.0000
v  8.6782 -0.0000 -15.0311
v  8.6782 4.8327 -15.0311
v  0.0000 0.0000 -17.3565
v  0.0000 4.8327 -17.3565
v  -8.6782 -0.0000 -15.0311
v  -8.6782 4.8327 -15.0311
v  -15.0311 -0.0000 -8.6782
v  -15.0311 4.8327 -8.6782
v  -17.3565 0.0000 -0.0000
v  -17.3565 4.8327 -0.0000
v  -15.0311 0.0000 8.6782
v  -15.0311 4.8327 8.6782
v  -8.6782 0.0000 15.0311
v  -8.6782 4.8327 15.0311
v  -0.0000 0.0000 17.3565
v  -0.0000 4.8327 17.3565
v  8.6782 0.0000 15.0311
v  8.6782 4.8327 15.0311
v  15.0311 0.0000 8.6782
v  15.0311 4.8327 8.6782
# 24 vertices

vn 1.0000 0.0000 0.0000
vn 0.8660 0.0000 -0.5000
vn 0.8660 -0.0000 -0.5000
vn 1.0000 -0.0000 0.0000
vn 0.5000 0.0000 -0.8660
vn -0.0000 0.0000 -1.0000
vn -0.5000 0.0000 -0.8660
vn -0.8660 -0.0000 -0.5000
vn -0.8660 0.0000 -0.5000
vn -1.0000 -0.0000 -0.0000
vn -1.0000 0.0000 -0.0000
vn -0.8660 0.0000 0.5000
vn -0.5000 0.0000 0.8660
vn -0.0000 0.0000 1.0000
vn 0.5000 0.0000 0.8660
vn 0.8660 0.0000 0.5000
vn 0.0000 -1.0000 -0.0000
vn -0.0000 -1.0000 0.0000
vn 0.0000 -1.0000 0.0000
vn -0.0000 -1.0000 -0.0000
vn 0.0000 1.0000 -0.0000
vn -0.0000 1.0000 -0.0000
vn 0.0000 1.0000 0.0000
# 23 vertex normals

vt 0.7500 0.0000 1.0000
vt 0.8333 0.0000 1.0000
vt 0.8333 1.0000 1.0000
vt 0.7500 1.0000 1.0000
vt 0.9167 0.0000 1.0000
vt 0.9167 1.0000 1.0000
vt 1.0000 0.0000 1.0000
vt 1.0000 1.0000 1.0000
vt 0.0000 0.0000 1.0000
vt 0.0833 0.0000 1.0000
vt 0.0833 1.0000 1.0000
vt 0.0000 1.0000 1.0000
vt 0.1667 0.0000 1.0000
vt 0.1667 1.0000 1.0000
vt 0.2500 0.0000 1.0000
vt 0.2500 1.0000 1.0000
vt 0.3333 0.0000 1.0000
vt 0.3333 1.0000 1.0000
vt 0.4167 0.0000 1.0000
vt 0.4167 1.0000 1.0000
vt 0.5000 0.0000 1.0000
vt 0.5000 1.0000 1.0000
vt 0.5833 0.0000 1.0000
vt 0.5833 1.0000 1.0000
vt 0.6667 0.0000 1.0000
vt 0.6667 1.0000 1.0000
vt 0.9330 0.7500 -0.2500
vt 1.0000 0.5000 -0.2500
vt 0.9330 0.2500 -0.2500
vt 0.7500 0.0670 -0.2500
vt 0.5000 0.0000 -0.2500
vt 0.2500 0.0670 -0.2500
vt 0.0670 0.2500 -0.2500
vt 0.0000 0.5000 -0.2500
vt 0.0670 0.7500 -0.2500
vt 0.2500 0.9330 -0.2500
vt 0.5000 1.0000 -0.2500
vt 0.7500 0.9330 -0.2500
vt 0.2500 0.9330 0.2500
vt 0.0670 0.7500 0.2500
vt 0.0000 0.5000 0.2500
vt 0.0670 0.2500 0.2500
vt 0.2500 0.0670 0.2500
vt 0.5000 0.0000 0.2500
vt 0.7500 0.0670 0.2500
vt 0.9330 0.2500 0.2500
vt 1.0000 0.5000 0.2500
vt 0.9330 0.7500 0.2500
vt 0.7500 0.9330 0.2500
vt 0.5000 1.0000 0.2500
# 50 texture coords

g Cylinder001
usemtl wire_029030045
s 8
f 1/1/1 2/2/2 3/3/3 
f 3/3/3 4/4/4 1/1/1 
f 2/2/2 5/5/5 6/6/5 
f 6/6/5 3/3/3 2/2/2 
f 5/5/5 7/7/6 8/8/6 
f 8/8/6 6/6/5 5/5/5 
f 7/9/6 9/10/7 10/11/7 
f 10/11/7 8/12/6 7/9/6 
f 9/10/7 11/13/8 12/14/9 
f 12/14/9 10/11/7 9/10/7 
f 11/13/8 13/15/10 14/16/11 
f 14/16/11 12/14/9 11/13/8 
f 13/15/10 15/17/12 16/18/12 
f 16/18/12 14/16/11 13/15/10 
f 15/17/12 17/19/13 18/20/13 
f 18/20/13 16/18/12 15/17/12 
f 17/19/13 19/21/14 20/22/14 
f 20/22/14 18/20/13 17/19/13 
f 19/21/14 21/23/15 22/24/15 
f 22/24/15 20/22/14 19/21/14 
f 21/23/15 23/25/16 24/26/16 
f 24/26/16 22/24/15 21/23/15 
f 23/25/16 1/1/1 4/4/4 
f 4/4/4 24/26/16 23/25/16 
s 1
f 21/27/17 19/28/17 17/29/18 
f 17/29/18 15/30/17 13/31/18 
f 13/31/18 11/32/19 9/33/19 
f 17/29/18 13/31/18 9/33/19 
f 9/33/19 7/34/20 5/35/18 
f 5/35/18 2/36/18 1/37/18 
f 9/33/19 5/35/18 1/37/18 
f 17/29/18 9/33/19 1/37/18 
f 21/27/17 17/29/18 1/37/18 
f 23/38/17 21/27/17 1/37/18 
f 3/39/21 6/40/21 8/41/22 
f 8/41/22 10/42/22 12/43/22 
f 12/43/22 14/44/23 16/45/21 
f 8/41/22 12/43/22 16/45/21 
f 16/45/21 18/46/21 20/47/21 
f 20/47/21 22/48/22 24/49/22 
f 16/45/21 20/47/21 24/49/22 
f 8/41/22 16/45/21 24/49/22 
f 3/39/21 8/41/22 24/49/22 
f 4/50/22 3/39/21 24/49/22 
# 44 faces

