# 3ds Max Wavefront OBJ Exporter v0.97b - (c)2007 guruware
# File Created: 09.12.2018 06:17:01

mtllib pause.mtl

#
# object Plane001
#

v  15.0000 17.2641 0.0000
v  5.0000 -17.2641 -0.0000
v  15.0000 -17.2641 -0.0000
v  -15.0000 17.2641 0.0000
v  -15.0000 -17.2641 -0.0000
v  -5.0000 -17.2641 -0.0000
v  5.0000 17.2641 0.0000
v  -5.0000 17.2641 0.0000
# 8 vertices

vn -0.0000 -0.0000 1.0000
vn 0.0000 -0.0000 1.0000
# 2 vertex normals

vt 1.0000 1.0000 0.0000
vt 0.7599 0.0000 0.0000
vt 1.0000 0.0000 0.0000
vt 0.0000 1.0000 0.0000
vt 0.0000 0.0000 0.0000
vt 0.2547 0.0000 0.0000
vt 0.7544 1.0000 0.0000
vt 0.2712 1.0000 0.0000
# 8 texture coords

g Plane001
usemtl wire_225198087
s 1
f 1/1/1 2/2/1 2/2/1 
f 2/2/1 3/3/1 1/1/1 
f 4/4/2 5/5/2 6/6/2 
f 1/1/1 7/7/1 2/2/1 
f 6/6/2 8/8/2 4/4/2 
# 5 faces

