# 3ds Max Wavefront OBJ Exporter v0.97b - (c)2007 guruware
# File Created: 09.12.2018 18:38:23

mtllib roadcimg.mtl

#
# object Plane001
#

v  -16.7174 -22.6800 -0.0000
v  -18.8975 -32.0830 -0.0000
v  -8.9072 -43.3890 -0.0000
v  -13.9375 -16.3190 -0.0000
v  -23.1560 -16.4580 -0.0000
v  -17.9104 -11.8228 -0.0000
v  12.2902 6.8566 -0.0000
v  -4.0562 0.2275 -0.0000
v  -1.8061 -4.8364 -0.0000
v  54.5075 -2.2995 -0.0000
v  44.5172 9.0065 -0.0000
v  19.8780 9.7504 -0.0000
v  24.3872 -1.1665 -0.0000
v  -1.2721 -6.0381 -0.0000
v  2.0683 -13.5556 -0.0000
v  8.3172 11.3528 -0.0000
v  16.3983 13.3756 -0.0000
v  40.1743 13.7492 -0.0000
v  32.2798 23.9457 -0.0000
v  -9.5481 4.7259 -0.0000
v  -13.8737 7.8985 -0.0000
v  -14.9292 8.6726 -0.0000
v  -21.5127 13.0988 -0.0000
v  -33.6004 -14.3085 -0.0000
v  -25.4594 -25.7377 -0.0000
v  1.0750 18.1314 -0.0000
v  0.4163 18.7479 -0.0000
v  -4.7789 23.6105 -0.0000
# 28 vertices

vn 0.0000 0.0000 1.0000
# 1 vertex normals

vt 0.1240 0.3578 0.0000
vt 0.0000 0.3542 0.0000
vt 0.0000 0.0000 0.0000
vt 0.2022 0.3794 0.0000
vt 0.1132 0.6027 0.0000
vt 0.1945 0.6244 0.0000
vt 0.6010 0.4118 0.0000
vt 0.4106 0.3963 0.0000
vt 0.3905 0.2676 0.0000
vt 1.0000 0.0000 0.0000
vt 1.0000 0.4335 0.0000
vt 0.6899 0.4154 0.0000
vt 0.4894 0.0000 0.0000
vt 0.3909 0.2354 0.0000
vt 0.3183 0.0000 0.0000
vt 0.6025 0.6135 0.0000
vt 0.6792 0.6135 0.0000
vt 1.0000 0.6099 0.0000
vt 1.0000 1.0000 0.0000
vt 0.4186 0.6184 0.0000
vt 0.4082 0.7240 0.0000
vt 0.4059 0.7338 0.0000
vt 0.3857 1.0000 0.0000
vt 0.0000 1.0000 0.0000
vt 0.0000 0.5883 0.0000
vt 0.5971 0.8121 0.0000
vt 0.5967 0.8193 0.0000
vt 0.5930 1.0000 0.0000
# 28 texture coords

g Plane001
usemtl _roadimgwire_006135006
s 1
f 1/1/1 2/2/1 3/3/1 
f 1/1/1 3/3/1 4/4/1 
f 5/5/1 1/1/1 4/4/1 
f 5/5/1 4/4/1 6/6/1 
f 7/7/1 8/8/1 9/9/1 
f 10/10/1 11/11/1 12/12/1 
f 13/13/1 12/12/1 14/14/1 
f 14/14/1 15/15/1 13/13/1 
f 14/14/1 12/12/1 7/7/1 
f 7/7/1 9/9/1 14/14/1 
f 16/16/1 7/7/1 12/12/1 
f 16/16/1 12/12/1 17/17/1 
f 17/17/1 18/18/1 19/19/1 
f 16/16/1 17/17/1 19/19/1 
f 6/6/1 20/20/1 21/21/1 
f 6/6/1 21/21/1 22/22/1 
f 22/22/1 5/5/1 6/6/1 
f 5/5/1 22/22/1 23/23/1 
f 23/23/1 24/24/1 5/5/1 
f 5/5/1 24/24/1 25/25/1 
f 16/16/1 19/19/1 26/26/1 
f 26/26/1 19/19/1 27/27/1 
f 27/27/1 19/19/1 28/28/1 
f 26/26/1 21/21/1 20/20/1 
f 20/20/1 16/16/1 26/26/1 
f 26/26/1 27/27/1 22/22/1 
f 22/22/1 21/21/1 26/26/1 
f 22/22/1 27/27/1 28/28/1 
f 28/28/1 23/23/1 22/22/1 
f 13/13/1 10/10/1 12/12/1 
f 3/3/1 9/9/1 8/8/1 
f 8/8/1 4/4/1 3/3/1 
f 9/9/1 3/3/1 14/14/1 
f 14/14/1 3/3/1 15/15/1 
# 34 faces

